# xmcd
#
# Track frame offsets:
#	150
#	13982
#	29156
#	45008
#	61414
#	79814
#	95979
#	111376
#	127539
#	147088
#	165016
#	181316
#	208064
#
# Disc length: 2912 seconds
#
# Revision: 1
# Processed by: cddbd v1.5.2PL0 Copyright (c) Steve Scherf et al.
# Submitted via: audiograbber 1.83.01
#
DISCID=aa0b5e0d
DTITLE=Craig David - Signed Sealed Delivered
DYEAR=2010
DGENRE=R&B
TTITLE0=One More Lie (Standing In The Shadows)
TTITLE1=Signed, Sealed, Deliverd (I'm Yours)
TTITLE2=All Alone Tonight (Stop, Look, Listen)
TTITLE3=I Heard It ThroughThe Grapevine
TTITLE4=Just My Imagination
TTITLE5=For Once In My Life
TTITLE6=(Sittin' On) The Dock Of The Bay
TTITLE7=Mercy Mercy Me
TTITLE8=I Wonder Why
TTITLE9=Papa Was A Rolling Stone
TTITLE10=Let's Stay Together
TTITLE11=This Could Be Love
TTITLE12=Data Track
EXTD=
EXTT0=
EXTT1=
EXTT2=
EXTT3=
EXTT4=
EXTT5=
EXTT6=
EXTT7=
EXTT8=
EXTT9=
EXTT10=
EXTT11=
EXTT12=
PLAYORDER=
